<?xml version="1.0" standalone="no"?>
<!DOCTYPE svg PUBLIC "-//W3C//DTD SVG 20010904//EN"
 "http://www.w3.org/TR/2001/REC-SVG-20010904/DTD/svg10.dtd">
<svg version="1.0" xmlns="http://www.w3.org/2000/svg"
 width="512.000000pt" height="512.000000pt" viewBox="0 0 512.000000 512.000000"
 preserveAspectRatio="xMidYMid meet">

<g transform="translate(0.000000,512.000000) scale(0.100000,-0.100000)"
fill="#000000" stroke="none">
<path d="M2014 4762 c-20 -13 -35 -52 -29 -73 4 -11 29 -45 57 -77 63 -72 139
-187 217 -327 60 -108 157 -323 149 -331 -3 -2 -47 44 -99 102 -274 309 -557
503 -794 545 -87 15 -235 6 -340 -21 -147 -37 -267 -127 -322 -238 -72 -147
-23 -370 121 -544 l55 -67 -183 -3 c-164 -3 -186 -5 -205 -22 -21 -19 -21 -25
-21 -416 0 -391 0 -397 21 -416 20 -18 50 -19 943 -19 l921 0 3 363 2 362 70
0 70 0 2 -362 3 -363 846 0 c819 0 848 1 868 19 21 19 21 25 21 415 0 218 -4
401 -8 407 -18 28 -56 34 -212 34 l-162 0 56 61 c62 69 137 211 156 298 52
229 -101 434 -370 496 -202 45 -356 28 -535 -60 -170 -84 -277 -167 -487 -377
-104 -103 -188 -185 -188 -182 0 16 79 193 124 279 70 132 147 250 229 353 72
88 83 124 49 155 -19 17 -57 22 -86 11 -8 -3 -41 -38 -74 -77 -115 -139 -251
-367 -323 -540 -18 -43 -35 -74 -39 -70 -4 4 -27 52 -50 105 -77 179 -233 428
-334 536 -39 41 -55 52 -80 52 -17 0 -36 -4 -42 -8z m-534 -302 c226 -33 509
-243 818 -608 l104 -123 -554 3 -553 3 -60 29 c-131 64 -261 249 -272 388 -7
80 8 128 55 180 65 71 163 113 306 128 39 4 76 8 81 8 6 1 39 -3 75 -8z m2338
-16 c114 -25 206 -84 245 -158 16 -31 21 -59 22 -112 0 -63 -4 -79 -43 -158
-57 -114 -140 -204 -230 -248 l-67 -33 -548 -3 -549 -3 20 28 c91 127 336 380
467 482 270 210 436 260 683 205z"/>
<path d="M933 2650 c-101 -11 -169 -36 -219 -82 -58 -53 -79 -111 -79 -213 1
-70 4 -87 30 -134 18 -32 48 -68 75 -87 41 -31 71 -45 230 -108 56 -23 68 -41
38 -60 -28 -17 -72 4 -76 37 l-3 27 -145 0 -144 0 0 -129 0 -129 63 -21 c150
-49 407 -55 522 -11 117 44 185 146 185 274 0 160 -71 239 -282 311 -88 30
-125 52 -110 67 18 18 76 4 87 -19 9 -22 15 -23 138 -23 l128 0 -3 117 -3 118
-58 23 c-98 39 -245 55 -374 42z m235 -45 c45 -8 102 -23 127 -34 l46 -20 -3
-83 -3 -83 -89 -3 c-86 -3 -90 -2 -110 23 -46 57 -156 39 -156 -25 0 -37 19
-50 135 -90 196 -69 255 -133 255 -277 0 -128 -58 -205 -182 -245 -107 -33
-368 -22 -480 21 -28 10 -28 11 -28 106 l0 95 105 0 c63 0 105 -4 105 -10 0
-27 41 -50 88 -50 58 0 85 17 85 54 0 40 -26 61 -111 91 -211 74 -282 147
-282 291 0 61 14 108 47 152 64 85 253 122 451 87z"/>
<path d="M1850 2653 c-122 -11 -236 -58 -290 -120 -71 -81 -110 -203 -110
-348 0 -166 39 -283 122 -362 84 -80 179 -113 335 -113 120 0 223 20 301 58
l57 27 3 163 2 162 -155 0 -155 0 0 -66 c0 -86 -10 -104 -60 -104 -29 0 -42 5
-50 19 -6 12 -10 100 -10 215 0 183 1 197 20 216 11 11 29 20 40 20 40 0 60
-35 60 -105 l0 -65 155 0 155 0 0 159 0 159 -53 25 c-86 40 -265 70 -367 60z
m190 -47 c41 -8 101 -24 133 -36 l57 -21 0 -130 0 -129 -114 0 -113 0 -6 57
c-8 74 -39 108 -98 107 -30 -1 -48 -9 -68 -28 -26 -26 -26 -27 -29 -203 -4
-210 1 -257 33 -289 28 -28 88 -32 122 -9 24 17 43 71 43 123 l0 32 115 0 115
0 0 -130 0 -130 -40 -20 c-91 -46 -297 -67 -411 -41 -126 29 -218 102 -260
207 -21 53 -24 74 -24 214 0 138 3 161 23 212 29 71 95 146 156 176 96 49 230
62 366 38z"/>
<path d="M2524 2538 c-159 -586 -158 -582 -184 -588 -25 -6 -25 -8 -28 -118
l-3 -112 213 2 213 3 0 110 0 110 -27 3 c-22 3 -28 9 -28 28 0 23 3 24 64 24
60 0 64 -1 68 -25 5 -22 2 -25 -23 -25 l-29 0 0 -115 0 -115 238 2 237 3 0
110 0 110 -26 3 c-26 3 -29 11 -120 348 l-94 344 -221 0 -222 0 -28 -102z
m536 -283 c83 -299 98 -345 115 -347 18 -3 20 -12 23 -75 l3 -73 -206 0 -206
0 3 73 3 72 33 3 c33 3 34 3 27 45 -15 88 -14 87 -110 87 -96 0 -95 1 -110
-87 -7 -42 -6 -42 27 -45 l33 -3 3 -72 3 -73 -176 0 -175 0 0 71 c0 62 2 71
20 76 23 6 26 14 130 398 39 143 73 268 76 278 5 15 23 17 198 17 l192 0 94
-345z"/>
<path d="M2701 2273 c-13 -60 -25 -118 -28 -130 -5 -22 -3 -23 72 -23 68 0 76
2 71 18 -3 9 -15 68 -27 130 -20 102 -24 112 -44 112 -20 0 -24 -10 -44 -107z
m64 -70 c7 -42 6 -43 -20 -43 -26 0 -27 2 -21 38 12 64 17 77 26 61 4 -8 11
-33 15 -56z"/>
<path d="M3280 2531 l0 -110 28 -3 27 -3 3 -232 2 -233 -30 0 -30 0 0 -115 0
-115 205 0 206 0 -3 113 -3 112 -25 0 -25 0 -3 113 c-1 61 1 112 5 112 5 0 73
-101 153 -225 l145 -225 172 0 173 0 2 348 3 347 28 3 27 3 0 110 0 109 -205
0 -205 0 0 -110 c0 -110 0 -110 24 -110 24 0 25 -3 28 -81 2 -45 0 -83 -3 -85
-4 -2 -64 84 -134 191 l-127 195 -219 0 -219 0 0 -109z m575 -171 c86 -132
159 -240 161 -240 2 0 4 77 4 170 l0 170 -25 0 c-24 0 -25 2 -25 70 l0 70 165
0 165 0 0 -70 c0 -68 -1 -70 -25 -70 l-25 0 0 -350 0 -350 -148 0 -147 0 -65
102 c-36 57 -116 179 -177 273 l-113 170 0 -197 c0 -196 0 -197 23 -200 20 -3
22 -9 25 -75 l3 -73 -166 0 -165 0 0 75 c0 73 1 75 25 75 l25 0 0 275 0 275
-25 0 c-24 0 -25 2 -25 70 l0 70 189 0 189 0 157 -240z"/>
<path d="M1014 1465 c-226 -49 -338 -208 -338 -480 0 -179 42 -296 137 -381
102 -91 202 -119 403 -111 139 5 245 26 315 63 l29 15 0 114 0 115 30 0 31 0
-3 108 -3 107 -227 3 -228 2 0 -110 c0 -110 0 -110 24 -110 33 0 39 -12 20
-38 -17 -24 -62 -29 -95 -12 -18 10 -19 23 -19 230 0 243 2 250 65 250 46 0
65 -29 65 -97 l0 -53 168 2 167 3 3 156 2 156 -52 23 c-126 54 -356 75 -494
45z m386 -50 c36 -10 78 -24 93 -32 l28 -14 -3 -122 -3 -122 -126 -3 -126 -3
-5 53 c-4 40 -11 57 -32 75 -48 41 -141 27 -167 -26 -18 -37 -25 -359 -9 -434
13 -66 40 -87 109 -87 57 0 91 32 98 93 l6 47 -32 0 -31 0 0 65 0 65 190 0
190 0 0 -49 c0 -65 -7 -81 -36 -81 -24 0 -24 0 -24 -119 0 -83 -4 -122 -12
-128 -66 -53 -371 -83 -493 -50 -206 57 -297 191 -298 437 -1 202 49 317 169
390 92 55 167 71 319 66 78 -3 156 -11 195 -21z"/>
<path d="M1787 1463 c-4 -3 -7 -57 -7 -120 l0 -113 30 0 30 0 0 -244 0 -245
-27 -3 -28 -3 -3 -117 -3 -118 246 0 245 0 0 119 0 120 -27 3 -28 3 -3 243 -2
242 30 0 30 0 0 120 0 120 -238 0 c-131 0 -242 -3 -245 -7z m443 -115 c0 -76
0 -77 -27 -80 l-28 -3 -3 -282 -2 -283 30 0 30 0 0 -80 0 -80 -202 2 -203 3 0
75 c0 74 0 75 28 78 l27 3 0 284 0 284 -27 3 c-27 3 -28 5 -31 72 -2 38 1 72
7 75 5 3 97 6 205 6 l196 0 0 -77z"/>
<path d="M2460 1350 l0 -120 30 0 30 0 0 -245 0 -245 -30 0 -30 0 0 -120 0
-120 295 0 296 0 -3 118 -3 117 -77 3 -78 3 0 79 0 80 90 0 90 0 0 85 0 84
-87 3 -88 3 -3 78 -3 77 36 0 35 0 0 -55 0 -55 125 0 125 0 -2 173 -3 172
-372 3 -373 2 0 -120z m710 -61 l0 -129 -85 0 -85 0 0 55 0 55 -75 0 -76 0 3
-117 3 -118 88 -3 87 -3 0 -44 0 -45 -90 0 -90 0 0 -120 0 -120 75 0 75 0 0
-80 0 -80 -250 0 -250 0 0 80 0 80 30 0 30 0 0 285 0 285 -30 0 -30 0 0 75 0
75 328 2 c180 2 330 2 335 0 4 -2 7 -61 7 -133z"/>
<path d="M3380 1305 l0 -165 120 0 120 0 0 45 c0 38 3 45 20 45 19 0 20 -7 20
-245 l0 -245 -40 0 -40 0 0 -120 0 -120 265 0 265 0 0 120 0 120 -40 0 -40 0
0 245 c0 238 1 245 20 245 17 0 20 -7 20 -45 l0 -45 120 0 120 0 0 165 0 165
-465 0 -465 0 0 -165z m890 -5 l0 -120 -80 0 -80 0 0 45 0 45 -60 0 -60 0 0
-284 0 -285 43 -3 42 -3 0 -75 0 -75 -230 0 -230 0 0 75 0 75 43 3 42 3 0 285
0 284 -60 0 -60 0 0 -45 0 -45 -80 0 -80 0 0 120 0 120 425 0 425 0 0 -120z"/>
</g>
</svg>
