<?xml version="1.0" standalone="no"?>
<!DOCTYPE svg PUBLIC "-//W3C//DTD SVG 20010904//EN"
 "http://www.w3.org/TR/2001/REC-SVG-20010904/DTD/svg10.dtd">
<svg version="1.0" xmlns="http://www.w3.org/2000/svg"
 width="500.000000pt" height="500.000000pt" viewBox="0 0 500.000000 500.000000"
 preserveAspectRatio="xMidYMid meet">

<g transform="translate(0.000000,500.000000) scale(0.100000,-0.100000)"
fill="#000000" stroke="none">
<path d="M2027 4648 c-9 -7 -19 -27 -23 -44 -5 -27 1 -39 51 -95 32 -35 84
-104 117 -154 63 -96 205 -371 232 -452 l16 -48 -82 90 c-252 278 -487 454
-698 525 -91 30 -238 37 -360 16 -186 -32 -320 -121 -383 -254 -28 -59 -32
-77 -31 -147 1 -132 63 -276 168 -391 l48 -54 -180 0 c-166 0 -181 -2 -206
-21 l-26 -20 0 -385 c0 -371 1 -385 20 -404 20 -20 33 -20 920 -20 l900 0 2
353 3 352 73 3 72 3 0 -356 0 -355 830 0 c817 0 830 0 850 20 19 19 20 33 20
403 0 377 0 384 -21 403 -18 17 -42 20 -186 24 l-166 5 51 60 c62 72 126 195
148 285 31 125 -8 262 -101 355 -134 135 -454 195 -665 125 -209 -70 -435
-239 -693 -520 l-87 -95 15 46 c55 162 240 483 354 612 56 64 63 95 31 127
-24 24 -67 26 -98 5 -35 -25 -151 -180 -220 -294 -66 -110 -167 -311 -178
-356 -9 -35 -14 -27 -63 85 -80 183 -218 407 -321 523 -43 47 -57 57 -84 57
-18 0 -40 -6 -49 -12z m-392 -326 c211 -83 448 -284 714 -606 l63 -77 -538 3
-539 3 -58 28 c-143 71 -269 259 -271 407 -1 54 4 73 27 112 65 112 221 171
427 164 78 -3 110 -9 175 -34z m2113 28 c232 -38 346 -169 298 -344 -38 -137
-148 -277 -261 -332 l-60 -29 -532 -3 c-293 -2 -533 1 -533 5 0 15 185 228
280 323 205 205 392 331 554 375 62 17 169 18 254 5z"/>
<path d="M893 2619 c-56 -11 -132 -45 -161 -72 -51 -47 -67 -95 -67 -197 0
-79 4 -102 22 -136 40 -75 113 -125 263 -178 84 -31 100 -41 100 -66 0 -21
-39 -33 -75 -24 -18 4 -28 15 -32 35 l-5 29 -134 0 -134 0 0 -123 0 -123 53
-17 c141 -43 360 -55 474 -24 146 39 223 135 223 276 0 149 -73 234 -255 297
-111 38 -135 51 -135 75 0 18 5 20 43 17 32 -2 44 -8 52 -25 9 -22 15 -23 132
-23 l123 0 0 110 0 111 -47 20 c-101 43 -319 62 -440 38z m351 -34 c113 -30
111 -27 114 -133 l3 -92 -104 0 c-95 0 -105 2 -110 19 -6 23 -62 41 -102 34
-15 -3 -31 -16 -38 -30 -16 -35 20 -64 121 -98 222 -76 294 -170 263 -339 -16
-86 -53 -134 -135 -175 -63 -31 -77 -34 -186 -39 -121 -5 -241 7 -330 34 l-51
15 3 102 3 102 108 3 c106 3 107 2 117 -22 11 -31 39 -46 84 -46 34 0 76 27
76 49 0 39 -23 54 -151 101 -164 60 -233 129 -245 246 -21 202 108 299 386
290 63 -3 142 -12 174 -21z"/>
<path d="M1761 2614 c-196 -53 -291 -199 -291 -448 1 -271 115 -417 357 -457
117 -18 296 7 396 57 l47 24 0 155 0 155 -144 0 -143 0 -5 -70 c-3 -38 -11
-77 -18 -85 -19 -23 -87 -20 -100 4 -6 12 -10 102 -10 224 0 185 2 205 18 220
20 18 59 22 80 9 16 -11 32 -67 32 -114 l0 -38 145 0 145 0 0 149 0 148 -58
26 c-121 55 -330 74 -451 41z m301 -18 c43 -8 102 -26 133 -40 l55 -25 0 -130
0 -131 -124 0 -124 0 -4 61 c-4 49 -9 66 -27 80 -31 25 -95 25 -120 0 -29 -29
-33 -68 -29 -274 3 -176 4 -188 25 -208 29 -30 97 -30 126 -1 16 16 22 37 25
87 l4 66 122 -3 121 -3 3 -130 c3 -152 4 -151 -106 -186 -85 -27 -269 -37
-351 -19 -125 28 -222 104 -260 204 -71 191 -39 446 69 555 97 97 264 132 462
97z"/>
<path d="M2470 2275 c-89 -324 -96 -345 -117 -345 -22 0 -23 -2 -23 -105 l0
-105 205 0 206 0 -3 103 -3 102 -33 3 c-25 3 -32 7 -28 19 3 8 6 21 6 29 0 11
16 14 70 14 54 0 70 -3 70 -14 0 -8 3 -21 6 -30 5 -13 -1 -16 -25 -16 l-31 0
0 -105 0 -105 230 0 230 0 0 105 0 105 -25 0 c-19 0 -26 7 -31 28 -4 15 -46
169 -94 342 l-87 315 -214 3 -214 2 -95 -345z m600 -27 c87 -314 97 -343 118
-346 21 -3 22 -8 22 -83 l0 -79 -210 0 -210 0 0 80 0 80 34 0 c34 0 35 0 29
38 -13 83 -13 83 -105 80 -90 -3 -84 2 -101 -85 -6 -32 -6 -33 28 -33 l35 0 0
-80 0 -80 -180 0 -180 0 0 79 c0 74 2 80 22 83 19 3 28 27 79 213 32 116 75
270 95 343 l36 132 197 0 197 0 94 -342z"/>
<path d="M2712 2247 c-12 -62 -22 -119 -22 -125 0 -8 21 -12 64 -12 l63 0 -25
125 c-20 99 -28 125 -41 125 -13 0 -21 -24 -39 -113z m63 -44 l13 -63 -38 0
-37 0 14 68 c8 37 17 74 20 82 7 17 6 20 28 -87z"/>
<path d="M3290 2516 l0 -105 28 -3 27 -3 3 -237 2 -238 -30 0 -30 0 0 -105 0
-105 195 0 195 0 0 105 0 105 -25 0 -25 0 0 133 0 132 63 -95 c34 -52 104
-159 154 -238 l93 -142 170 0 170 0 0 345 0 345 25 0 25 0 0 105 0 105 -195 0
-195 0 0 -105 0 -105 25 0 25 0 0 -100 c0 -55 -2 -100 -4 -100 -2 0 -64 92
-137 205 l-134 205 -212 0 -213 0 0 -104z m569 -161 c85 -129 156 -235 158
-235 1 0 3 69 3 154 l0 155 -27 3 c-28 3 -28 4 -31 81 l-3 77 176 0 175 0 0
-80 0 -80 -30 0 -30 0 0 -345 0 -345 -147 0 -148 0 -169 260 c-92 143 -170
260 -172 260 -2 0 -4 -81 -4 -180 l0 -180 25 0 c25 0 25 -1 25 -80 l0 -80
-175 0 -175 0 0 80 0 80 30 0 30 0 0 264 0 265 -27 3 c-28 3 -28 4 -31 81 l-3
77 198 0 198 0 154 -235z"/>
<path d="M1008 1495 c-148 -37 -247 -130 -284 -267 -47 -177 -14 -402 74 -504
40 -47 117 -95 185 -116 123 -39 354 -25 494 28 l43 17 0 113 0 114 30 0 30 0
0 95 0 95 -210 0 -210 0 0 -95 0 -95 30 0 c34 0 38 -14 14 -48 -11 -16 -25
-22 -54 -22 -68 0 -70 5 -70 236 0 191 1 205 20 224 11 11 33 20 50 20 46 0
70 -31 70 -90 l0 -50 150 0 150 0 0 145 0 145 -36 15 c-82 34 -153 47 -284 51
-97 2 -151 -1 -192 -11z m318 -20 c48 -9 107 -24 131 -35 l43 -19 0 -125 0
-126 -130 0 -130 0 0 45 c0 63 -32 95 -93 95 -34 0 -49 -6 -68 -26 -24 -25
-24 -27 -24 -232 0 -148 4 -213 13 -229 16 -29 72 -44 117 -32 39 11 55 33 55
78 0 28 -3 31 -30 31 l-31 0 3 73 3 72 185 0 185 0 0 -70 c0 -69 0 -70 -27
-73 l-28 -3 0 -114 0 -113 -42 -17 c-108 -43 -339 -59 -443 -31 -150 40 -244
138 -276 287 -17 77 -7 283 16 339 30 73 62 118 111 153 109 79 272 104 460
72z"/>
<path d="M1770 1395 l0 -105 25 0 25 0 0 -240 0 -240 -25 0 -25 0 0 -105 0
-105 225 0 226 0 -3 103 -3 102 -27 3 -28 3 0 240 0 239 30 0 30 0 0 105 0
105 -225 0 -225 0 0 -105z m420 -5 c0 -79 0 -80 -25 -80 l-25 0 0 -265 0 -265
25 0 c25 0 25 -1 25 -80 l0 -80 -200 0 -200 0 0 79 c0 79 0 80 28 83 l27 3 3
263 2 262 -30 0 -30 0 0 80 0 80 200 0 200 0 0 -80z"/>
<path d="M2420 1395 l0 -105 25 0 25 0 0 -240 0 -240 -25 0 -25 0 0 -105 0
-105 270 0 270 0 0 105 0 105 -75 0 -75 0 0 80 0 80 85 0 85 0 0 80 0 80 -85
0 -85 0 0 80 0 80 40 0 40 0 0 -55 0 -55 110 0 110 0 0 160 0 160 -345 0 -345
0 0 -105z m670 -55 l0 -130 -90 0 -90 0 0 50 0 50 -60 0 -60 0 0 -105 0 -105
85 0 85 0 0 -50 0 -50 -85 0 -85 0 0 -110 0 -110 70 0 70 0 0 -80 0 -80 -245
0 -245 0 0 79 c0 79 0 80 28 83 l27 3 3 263 2 262 -30 0 -30 0 0 80 0 80 325
0 325 0 0 -130z"/>
<path d="M3300 1350 l0 -150 110 0 110 0 0 45 c0 38 3 45 20 45 19 0 20 -7 20
-240 l0 -240 -35 0 -35 0 0 -105 0 -105 245 0 245 0 0 105 0 105 -40 0 -40 0
0 240 0 240 25 0 c23 0 25 -4 25 -45 l0 -45 110 0 110 0 0 150 0 150 -435 0
-435 0 0 -150z m850 0 l0 -120 -85 0 -85 0 0 40 0 40 -50 0 -50 0 0 -265 0
-265 40 0 40 0 0 -80 0 -80 -225 0 -225 0 0 80 0 80 40 0 40 0 0 265 0 265
-50 0 -50 0 0 -40 0 -40 -85 0 -85 0 0 120 0 120 415 0 415 0 0 -120z"/>
</g>
</svg>
